<?xml version="1.0" encoding="iso-8859-1"?>
<!DOCTYPE svg PUBLIC "-//W3C//DTD SVG 1.0//EN" "http://www.w3.org/TR/2001/REC-SVG-20010904/DTD/svg10.dtd">
<svg xmlns="http://www.w3.org/2000/svg" width="195.527pt" height="770.713pt" viewBox="0 0 195.527 770.713" xml:space="preserve">
          <g style="fill:#000000; stroke:#FFFFFF;">
               <path d="M149.851,46.214c-1.595,2.393-3.215,3.858-5.144,5.144c-8.357,3.857-16.716,6.429-25.717,8.357c-6.429,1.929-13.501,0.643-19.93,3.215c-4.5,1.929-5.786,9-1.285,11.572c4.5,2.572,9,1.286,14.144,1.929c6.429,1.286,11.572,2.572,18.001,4.501     c2.572,0.643,5.144,1.286,7.072,3.857c5.144,6.429,2.571,16.715-5.144,19.288c-7.714,1.928-18.001,1.928-22.502,9.643c0,0.643,1.286,1.929,1.93,1.929c4.501,0.643,8.357-0.643,12.858,0c1.928,0.643,3.856,1.929,5.144,3.214c3.214,2.572,6.428,5.144,7.714,9.644     c0.644,6.429,1.286,13.501-2.571,18.645c-1.929,3.214-3.215,6.429-5.786,9.644c-0.644,0.643-0.644,2.571,0,3.214c4.501,2.572,10.286,1.286,14.787,3.215c1.285,0.643,1.928,1.286,2.571,2.571c2.571,5.786-1.286,11.572-5.786,13.501     c-2.571,1.286-5.144,2.572-7.715,2.572c-16.073,0.644-32.146-2.572-48.218-6.429c-3.857-1.286-2.572-7.072,1.286-9.001c3.215-0.643,6.429-1.929,9.644-2.572c3.215-0.643,6.429-1.929,8.358-3.214c7.715-5.143,14.786-12.858,11.572-22.502     c-0.644-3.215-3.857-5.144-7.072-5.144c-10.931,0-20.573,5.786-30.86,10.287c-1.929,1.286-3.857,3.214-5.143,5.143c-1.929,4.5-3.857,8.358-4.5,12.858c0,3.858,1.928,7.715,2.571,11.573c0.644,7.072-3.857,15.43-11.572,14.144     c-5.144-0.643-10.93-1.286-14.145-6.429c-1.286-3.215-3.214-5.786-3.857-9.001c-1.929-8.357-1.286-16.715-0.643-25.073c0.643-1.286,1.929-2.572,1.929-3.857c2.572-9.644,7.715-17.359,15.43-21.216c1.929-1.286,5.144,0.644,5.144,2.572     c1.286,4.5-1.287,9-3.215,12.858c-0.643,1.929,0.643,4.501,2.571,4.501c1.929-0.643,3.858-1.286,5.144-2.572c5.786-7.714,13.501-12.858,21.216-16.072c5.144-1.929,10.93-3.215,14.787-7.072c1.929-1.929,0.644-5.786,1.929-7.715     c0.643-0.643,1.929-1.286,2.572-2.572c0.643-2.571-0.644-5.143-3.215-6.429c-8.358-3.214-18.645,1.286-24.43,9.001c-3.215,4.5-9.645,4.5-14.788,6.429c-3.215,1.286-6.429,4.5-9.644,3.214c-3.857-1.929-8.357-1.286-12.215-3.214c-3.214-1.286-8.357-1.929-9-5.786     c-1.286-3.215-1.929-7.715,0-9.644c8.358-9.001,20.573-10.93,31.503-18.001c3.857-2.572,7.715-11.573,1.929-12.859c-4.501-1.285-9.001,1.929-13.502,3.858c-5.143,1.929-10.93,1.929-16.715,3.857c-3.858,0.643-7.072-3.215-10.929-4.5     c-7.072-3.215-14.145-7.715-19.931-14.788c-1.286-1.929-0.643-5.143,1.286-5.143c7.715-1.286,16.072,0,23.787,0.643c11.572,1.286,23.145-1.929,34.717-4.5c1.929-0.643,5.144-1.286,5.787-3.857c1.286-6.43,1.286-12.215,3.214-18.001     c1.286-5.143,1.929-10.287,4.501-15.43c2.571-5.144,8.357-12.859,15.429-8.358c0.643,0-0.643,1.929-1.286,3.215c-0.643,11.572,1.286,22.502,2.572,34.074c0,0.643,1.286,2.572,2.571,3.215c14.787,0.643,28.931-3.215,42.432-9c3.857-1.929,6.43-5.787,10.287-7.715     c1.929-0.643,3.858,0.643,3.858,1.929c2.57,6.429-1.93,12.858-5.787,18.644z"/>
                 <path d="M133.779,455.748c5.008,4.652,11.571,10.287,7.071,16.074c-3.214,4.498-8.357,13.5-15.429,9c3.214-4.502-0.644-8.359-4.501-9.645c-7.715-1.928-16.073-2.572-23.789,1.285c-7.071,2.572-11.571,9.645-18.644,12.859c-1.929,1.287-3.857,2.572-6.429,3.215     c-0.643,0-1.929,1.285-3.215,1.928c-4.5,1.287-9.644,3.857-14.144,3.215c-6.429-0.643-12.858,1.287-18.645-1.928c-0.643,0-1.929-0.643-2.572-1.93c-0.643-1.285-0.643-2.57-1.286-3.857c-2.572-3.213-0.643-7.072,1.929-9.645     c5.144-7.715,13.501-10.928,21.216-14.785c3.215-1.93,7.073-2.572,10.287-3.215c5.786-2.572,5.786-9.645,4.5-14.787c-0.643-2.572-3.857-5.785-6.429-4.5c-3.857,2.572-8.358,3.215-12.216,4.5c-5.143,1.285-9.644,5.787-15.43,3.857     c-1.286-0.643-1.929-1.928-3.214-2.572c-2.572-1.285-5.143-1.285-7.715-2.57c-3.215-0.643-5.786-2.572-9.001-4.5c-1.929-0.645-3.857-2.572-5.143-3.215c-1.929-1.287-3.857-2.572-5.786-3.215c-2.572-1.93-6.43-3.857-3.857-7.715     c17.359,0.643,34.717,1.285,52.718-2.572c4.501-1.285,10.93,1.287,13.502-3.215c5.143-6.43,2.571-15.43,7.714-22.502c3.857-5.786,9.001-13.5,17.358-12.215c1.93,0,3.215,2.572,2.572,4.501c-3.215,7.072-3.215,14.787-1.929,22.501     c0.643,1.285,1.929,2.572,3.215,2.572c7.715,0,14.787-2.572,22.501-4.5c2.572-0.645,5.145-2.572,7.716-3.215c8.357-2.572,16.716-5.145,25.073-2.572c2.571,1.285,4.5,4.5,2.571,7.072c-2.571,3.857-5.786,6.43-9.644,9.002c-0.643,0-1.285,0-1.929,0     c-1.286,1.285-1.929,1.928-3.215,2.57c-5.143,1.928-10.285,3.857-15.429,6.43c-8.357,2.572-16.716,3.857-25.074,7.072c-4.5,1.928-1.93,7.715-0.643,12.215c0,0.643,1.929,1.928,2.571,1.928c10.93,0,23.788-1.285,32.789,7.072z"/>
                 <path d="M149.851,545.756c-3.857-3.857-7.715-7.072-14.145-7.715c-5.786-1.285-0.643-8.357,0.644-12.857c1.286-3.857,0.643-7.715,0.643-11.572s-1.286-7.715-2.571-10.93c-1.285-1.93-1.285-3.857-2.572-5.787c-2.57-3.215-6.428-6.43-10.286-7.072     c-5.785-1.285-11.572-1.285-17.358,0c-6.429,1.287-12.858,1.287-18.645,3.215c-5.786,2.572-11.573,4.5-17.358,7.715c-3.858,1.93-7.073,7.072-11.572,8.357c-6.429,1.287-1.287-7.07-3.858-10.285c-1.286-0.645-3.215-0.645-4.5,0.643     c-2.572,3.857-6.43,6.43-8.358,10.287c-1.929,3.213-3.857,6.428-5.143,9.643c-2.572,7.072-4.5,14.145-3.857,21.859c0.643,4.5,1.929,8.357,3.214,12.859c0.643,4.498,2.572,9.643,5.786,12.857c4.5,3.213,9.644,3.213,14.787,1.285c5.144-2.572,5.786-9,10.93-10.285     c6.429-1.287,13.5-1.287,19.93,0c14.787,2.57,28.288,1.285,42.432,3.213c7.715,0.645,17.358-1.285,23.146-7.715c1.929-2.572,0.643-5.787-1.286-7.715z M99.704,536.756c-6.429,3.215-13.501,2.57-19.929,5.785c-1.287,0.643-2.572,0-3.858,0     c-3.215,1.285-5.787,3.215-9.001,5.143c-2.572,1.287-4.5-1.285-5.144-3.213c-0.643-3.857-1.286-7.715,0-10.93c0.644-1.285,1.286-2.572,1.929-3.857c0-0.643,0-1.928,0-2.572c1.286-1.928,3.214-3.857,5.143-5.143c8.358-7.715,18.002-14.145,30.217-12.859     c3.215,0,5.786,3.215,7.715,5.787c1.286,2.572,1.286,5.143,1.286,7.715c0,5.785-3.215,11.572-8.358,14.145z"/>
                 <g>
                    <path d="M181.353,716.77c-13.501-0.643-26.359-1.928-39.86,1.93c-7.714,2.572-14.786,8.357-23.145,7.072c-6.429-1.285-14.786,0.643-18.001-6.43c-1.286-2.572,1.285-5.143,2.571-6.428c6.429-6.43,16.716-7.715,22.503-15.432c2.57-1.928,3.857-5.143,3.214-9      c-0.644-2.572-1.929-5.785-3.214-8.357c-1.93-5.143-5.787-9.002-10.931-11.572c-5.144-1.93-10.286,0.643-15.43-0.645c-1.93,0-2.571-2.57-1.93-4.5c1.93-3.855,5.787-3.855,9.002-5.785c1.286-1.287,4.5-1.928,6.429-3.215c14.145-9.002,27.002-16.072,36.646-30.217      c1.286-1.93,1.93-3.215,2.572-5.145c1.286-3.855,1.094-8.383,0.643-12.215c-1.285-10.93-7.715-21.857-17.358-26.359c-9.643-4.5-19.93-3.857-30.217-1.928c-6.429,0.643-13.501,1.285-19.287,4.5c-6.43,3.215-12.858,5.787-19.288,10.287      c-6.429,5.143-12.858,9.643-16.716,16.715c-1.285,2.572,0.644,7.072-2.571,9c-5.144,2.572-7.715-4.5-9.001-8.357c-1.285-2.57-3.857-5.143-4.5-7.715c-1.286-4.5-2.571-9-6.429-11.572c-1.929-1.285-3.857,1.93-3.857,3.857c-1.286,5.787-0.643,10.932-1.286,16.074      c-0.643,1.285,1.286,2.57,0.643,3.857c-3.214,5.143-1.286,11.572-1.286,16.715c0,7.072,1.286,14.787,4.5,21.217c2.572,5.143,5.143,11.572,11.572,13.5c5.143,1.285,12.215,1.285,14.787-3.215c1.285-1.285,1.928-4.5,3.857-5.785c1.929-0.643,3.214,1.285,4.5,2.57      c2.572,1.93,3.857,5.787,7.715,6.43c3.214,0.643,7.072-0.643,10.286,0c5.143,1.93,2.572,8.359,0,11.572c-3.214,4.502-7.072,7.715-9.644,12.215c-2.572,4.502-4.5,9.002-2.572,13.502c0.643,1.287,3.215,2.572,3.215,3.857c1.929,7.715-7.072,10.93-12.858,12.215      c-18.002,3.215-37.289-3.857-50.147,10.287c-5.787,5.787,0.643,12.215,6.429,14.787c5.143,1.928,10.929,2.572,16.715,1.285c11.573-3.215,21.216-8.357,32.146-12.215c3.858-1.287,8.358-1.287,12.215,0c14.788,3.857,28.931,3.215,43.076,9      c6.429,2.572,13.501,1.287,20.573,2.572c2.571,0,3.856-1.928,5.786-1.928c0-1.287,0.643-1.93,1.285-1.93c1.929,0,2.572-1.285,3.857-1.928c1.286-1.287,2.572-3.857,4.501-4.5c1.928-0.645,3.857-1.93,5.785-2.574c5.144-1.928,9.645-5.785,14.788-8.355      c1.928-0.645,4.5-1.287,6.429-1.93c1.285-0.643,3.857-1.285,3.857-3.857c0-1.285-1.929-1.93-2.572-1.93z M81.06,701.984c-1.285,0.643-2.572,0-2.572-2.572c0-1.93,1.287-3.215,3.215-2.572c1.285,0.643,1.285,2.572,1.285,3.857c0,1.287-1.285,0.643-1.928,1.287z       M82.345,646.693c-2.571,3.215-7.072,3.215-9-0.643c-0.643-2.572,2.572-4.502,3.857-5.787c1.438-1.438,4.5-2.57,5.786,0c0.643,1.93,0.643,4.5-0.643,6.43z M84.917,617.762c-0.643,0-2.572,0.643-3.214,0.643c-9.001,7.072-15.43,15.432-18.645,26.359      c0,1.287,0.643,2.572,0,3.857c-1.929,2.572-5.786,3.215-7.072,0c-0.644-3.215-1.929-6.428-1.929-9c0-20.574,16.716-39.217,37.289-43.719c3.857-0.643,6.43-2.57,10.286-1.928c7.072,1.285,12.858,6.43,15.431,14.145c1.285,3.857,0.643,8.357,0.643,12.215      s-3.215,7.072-5.144,10.93c-2.571,3.857-5.143,11.572-11.572,10.93c-0.643-4.5,3.857-9.002,6.43-12.859c1.928-3.215,1.285-7.072,0-10.287c-1.286-1.928-3.857-3.855-5.787-4.5c-5.786-2.57-11.572-0.643-16.715,3.215z M98.418,689.125      c0.454-1.363,2.571-0.643,3.214-0.643c0.644,0.643,0.644,2.572-0.643,3.215c-1.929,0.643-3.214-0.643-2.571-2.572z"/>
                      <path
              d="M140.208,689.125c-1.929,5.145,1.285,10.93,4.5,16.074c2.572,3.857,7.072,7.715,12.858,5.143s5.786-10.287,1.285-12.859c-1.285-0.643-2.571-2.57-3.857-2.57c-0.643-0.643-1.406-1.818-2.571-3.215c-3.215-3.857-10.286-7.715-12.215-2.572z"/>
                     </g>
                 <path d="M173.639,340.667c-5.787,0-11.573-1.285-17.359-1.285c-18.644,1.285-36.003,7.072-55.29,3.214c-5.786-1.286-2.571-9.643,0-13.5c5.144-9.644,16.716-12.858,20.573-23.145c1.286-3.857,1.286-9.001-0.643-12.858c-4.501-7.715-14.145-7.715-22.502-8.357     c-3.215-5.144,3.214-7.715,6.429-8.358c9.001-3.215,16.383-7.998,23.145-14.145c7.072-6.429,14.145-11.572,17.358-19.93c2.572-5.787,3.857-12.216,2.572-18.645c-0.643-2.572-0.643-5.786-1.929-8.358c-3.215-4.5-5.786-9.644-10.93-12.858     c-1.285-0.643-2.571-1.287-3.857-1.287c-2.571-1.285-4.5-3.214-7.071-4.5c-14.788-3.214-29.574,0.643-43.076,6.429c-3.857,1.286-7.715,5.143-12.215,7.715c-0.643,0.643-2.572,1.929-3.857,2.572c-3.858,3.857-8.357,6.429-11.573,11.572     c-2.571,3.857-4.5,7.072-6.429,10.287c-1.286,1.929-2.572,3.214-2.572,5.143c-0.643,1.286-2.572,3.215-4.5,2.572c-3.857-1.929-5.143-6.429-6.429-9.644c-0.643-1.286-1.286-2.572-1.929-3.857c-1.286-1.286-2.571-2.572-3.214-3.857     c-2.572-6.429-5.144-12.858-10.93-16.716c-1.286-0.643-3.215,0-4.5,0c-1.929,0.643-1.286,2.572-1.929,3.857c-1.286,4.5,1.286,9.644,1.286,14.144c0.643,9.001,1.928,18.002,4.501,26.359c1.929,5.786,1.285,12.215,3.857,18.644c0.643,0.643,1.286,1.286,1.929,1.929     c1.929,9,9.644,17.358,18.645,14.787c5.144-1.929,9.001-7.072,9.644-12.215c1.929-9.644-0.643-19.288,4.5-28.289c9.001-16.072,22.502-31.502,41.789-31.502c4.501,0,10.288,1.286,14.146,4.5c3.214,3.215,5.786,7.715,6.429,12.215     c1.285,3.858-1.928,7.072-3.857,10.287c0,0.643,0,1.929,0,2.572c-1.929,3.214-4.501,5.786-7.715,8.358c-1.929,0.643-6.43,2.571-5.786-0.643c0.643-5.787,5.143-14.144-0.644-17.359c-3.857-2.571-9.644-2.571-14.787,0.644c-6.429,5.143-12.215,9-18.645,14.144     c-2.571,1.929-3.214,5.144-4.5,7.715c-1.286,3.857,0,7.715,2.572,9.644c3.858,3.857,10.287,5.143,15.431,7.715c3.856,2.571,4.5,9,1.285,12.215c-5.786,4.5-11.572,8.357-16.716,13.501c-3.857,3.857-5.786,7.715-7.072,12.215c-1.286,6.429,4.5,8.357,6.429,12.858     c1.929,4.5-4.5,6.429-7.715,8.358c-15.43,7.714-31.503,9.644-48.218,7.071c-1.929-0.643-3.858,1.929-2.572,3.858c3.214,6.429,11.573,7.071,18.001,10.929c1.286,1.286,3.215,2.572,5.786,3.215c0.643,0,1.929,1.286,2.571,1.286     c3.858,1.929,7.715,2.571,12.215,2.571c0.643,0,1.929,1.286,2.572,1.929c3.214,0.643,6.429,0.643,9-0.643c3.215-1.286,7.073-3.857,10.287-5.144c10.929-4.5,22.501-3.215,34.074-1.286c5.786,0.644,11.573,2.572,17.359,3.215c1.928,0,4.5,0.643,6.429,1.929     c1.286,0.643,3.857-0.643,5.144,0c1.285,0.643,2.571,1.286,3.857,1.929c1.929,0.643,3.857,0.643,5.786,0c10.286-4.5,18.645-11.572,28.288-16.716c3.214-1.285,7.072-2.571,9-5.144c0.644-1.286,0-3.857-1.928-3.857z M81.703,260.304c-0.643,0-1.286,0-1.928,0     c-2.034,0-1.929-3.214-0.644-4.5c2.572-1.286,4.5,2.571,2.572,4.5z M77.845,318.809c-1.286,0-1.286,1.286-1.929,1.286c-1.929,0-2.572-1.929-2.572-3.857c0-2.571,1.929-4.5,3.857-3.215c1.286,1.286,0.643,3.857,0.643,5.786z"/>
                </g>
      </svg>
