<?xml version="1.0" encoding="UTF-8" standalone="no"?>
<!-- Created with Inkscape (http://www.inkscape.org/) -->
<svg
   xmlns:svg="http://www.w3.org/2000/svg"
   xmlns="http://www.w3.org/2000/svg"
   version="1.0"
   width="544"
   height="671.66699"
   viewBox="0 0 544 671.667"
   id="レイヤー_1"
   xml:space="preserve"><defs
   id="defs92" />
<path
   d="M 398.769,83.191 C 398.769,88.786 394.386,92.983 389.194,92.983 C 385.815,92.983 381.938,91.169 380.223,86.456 C 380.02,85.836 379.719,84.592 379.719,83.916 L 379.719,82.466 C 380.423,76.457 384.81,73.402 389.194,73.402 C 394.435,73.402 398.769,77.701 398.769,83.191 z "
   style="fill-rule:evenodd"
   id="path3" />
<path
   d="M 397.206,83.191 C 397.206,87.7 393.527,91.379 389.245,91.379 C 386.373,91.379 382.743,89.616 381.632,85.525 C 381.482,84.9 381.331,83.762 381.331,83.66 L 381.331,82.725 C 381.835,77.648 385.562,75.007 389.193,75.007 C 393.677,75.007 397.206,78.738 397.206,83.191 z "
   style="fill:#ffffff;fill-rule:evenodd"
   id="path5" />
<path
   d="M 355.48,0.021 C 342.505,0.251 318.031,1.182 317.785,1.191 L 317.957,1.188 C 310.059,1.188 240.713,8.174 166.503,38.665 C 124.879,55.767 90.148,76.964 63.276,101.667 C 29.87,132.375 8.613,168.57 0.096,209.245 L 0,209.701 L 0,634.313 C 0,654.91 16.419,671.667 36.6,671.667 L 507.4,671.667 C 527.581,671.667 544,654.91 544,634.313 L 544,123.294 L 543.924,122.886 C 536.535,83.152 513.67,51.569 475.964,29.015 C 447.068,11.731 414.246,3.318 393.165,1.208 L 393.06,1.197 L 392.954,1.192 C 391.888,1.137 366.722,-0.179 355.48,0.021 z M 69.367,108.292 C 95.454,84.311 129.286,63.685 169.923,46.989 C 241.704,17.497 310.671,10.188 317.957,10.188 L 318.043,10.188 L 318.129,10.185 C 318.373,10.176 342.757,9.248 355.641,9.021 C 366.287,8.832 390.862,10.098 392.351,10.175 C 412.468,12.201 443.755,20.239 471.344,36.741 C 506.623,57.843 528.032,87.262 535,124.178 C 535,125.11 535,634.315 535,634.315 C 535,649.949 522.619,662.669 507.4,662.669 L 36.6,662.669 C 21.381,662.669 9,649.949 9,634.315 C 9,634.315 9,211.691 9,210.677 C 17.183,172.045 37.486,137.598 69.367,108.292 z "
   style="fill-rule:evenodd"
   id="path7" />
<path
   d="M 33.871,666.298 L 506.721,666.466 C 524.106,666.144 538.099,651.614 538.099,633.739 L 538.099,624.234 L 538.45,624.234 L 538.45,311.142 C 436.177,359.596 333.902,397.282 231.629,397.282 C 156.27,397.282 53.996,391.9 5.552,284.224 L 5.552,638.593 C 7.682,653.271 19.334,664.771 33.871,666.298 z "
   style="fill-rule:evenodd"
   id="path9" />
<path
   d="M 387.738,88.05 L 387.861,86.464 L 387.56,86.464 L 383.171,88.118 L 383.021,87.421 L 384.416,86.765 C 384.57,86.182 384.648,85.53 384.648,84.81 C 384.648,84.09 384.648,83.397 384.648,82.732 L 382.966,83.142 L 382.665,82.992 L 382.665,82.28 C 384.588,81.934 386.5,81.633 388.4,81.378 C 390.3,81.123 392.244,80.909 394.231,80.735 L 394.532,80.872 L 394.532,81.2 C 393.684,81.647 392.782,81.87 391.825,81.87 C 390.868,81.87 389.956,81.916 389.091,82.007 L 388.845,87.517 L 389.023,87.517 L 391.06,85.904 L 389.966,84.92 L 389.966,84.455 L 390.65,84.318 L 391.634,85.316 L 393.042,83.361 L 389.474,83.935 L 389.474,83.32 C 390.158,83.047 390.891,82.867 391.675,82.78 C 392.458,82.694 393.234,82.518 393.999,82.254 L 394.423,82.828 C 394.158,83.366 393.839,83.892 393.466,84.407 C 393.092,84.922 392.714,85.38 392.331,85.781 L 392.796,86.136 L 392.796,86.382 L 395.257,88.009 L 395.421,88.488 L 394.97,88.625 C 394.368,88.37 393.781,88.053 393.206,87.675 C 392.631,87.297 392.107,86.903 391.634,86.492 C 391.251,86.902 390.848,87.233 390.424,87.483 C 390,87.733 389.537,87.941 389.036,88.105 L 388.694,87.996 L 388.571,88.625 C 388.234,88.833 387.957,88.642 387.738,88.05 z M 385.563,81.487 L 385.262,81.323 L 385.262,80.913 L 385.508,76.893 L 391.633,76.114 C 391.997,76.215 392.18,76.422 392.18,76.736 C 392.18,77.05 392.18,77.377 392.18,77.714 L 391.811,80.448 L 391.223,80.735 L 391.1,80.339 L 389.897,80.339 C 389.168,80.503 388.429,80.629 387.682,80.715 C 386.934,80.802 386.228,81.059 385.563,81.487 z M 387.98,85.616 L 388.089,85.055 L 387.433,85.055 L 385.492,85.575 L 385.492,86.354 L 385.793,86.354 L 387.98,85.616 z M 388.104,82.663 L 388.227,82.157 L 385.616,82.499 L 385.616,83.032 L 386.067,83.032 L 388.104,82.663 z M 388.104,84.194 L 388.104,83.524 L 387.434,83.524 L 385.616,84.03 L 385.616,84.7 L 385.807,84.7 L 388.104,84.194 z M 391.195,77.919 L 391.195,77.003 L 390.156,77.003 C 389.49,77.176 388.789,77.283 388.051,77.324 C 387.313,77.365 386.711,77.586 386.246,77.987 L 386.451,78.548 C 387.171,78.384 387.945,78.261 388.775,78.179 C 389.604,78.097 390.411,78.01 391.195,77.919 z M 391.195,79.341 L 391.195,78.794 L 389.144,78.794 L 386.355,79.423 L 386.355,80.093 L 386.546,80.093 L 391.195,79.341 z "
   id="path11" />
<g
   id="g13">
	<path
   d="M 387.538,333.021 L 395.848,330.301 L 397.7,335.956 L 389.389,338.676 L 387.538,333.021 z M 390.238,341.27 L 398.548,338.55 L 405.645,360.232 L 397.335,362.953 L 390.238,341.27 z "
   id="path15" />
	<path
   d="M 403.295,337.03 L 410.963,334.298 L 412.211,337.798 C 412.848,335.96 413.644,334.525 414.599,333.493 C 415.553,332.461 416.873,331.645 418.561,331.044 C 420.84,330.232 422.866,330.274 424.637,331.171 C 426.408,332.067 427.797,333.932 428.807,336.765 L 433.674,350.422 L 425.399,353.371 L 421.188,341.555 C 420.708,340.206 420.118,339.341 419.419,338.959 C 418.721,338.577 417.919,338.547 417.016,338.869 C 416.018,339.225 415.342,339.891 414.992,340.868 C 414.64,341.845 414.813,343.31 415.511,345.266 L 419.188,355.585 L 410.953,358.52 L 403.295,337.03 z "
   id="path17" />
	<path
   d="M 434.842,343.239 L 442.633,339.328 C 443.341,340.159 444.076,340.664 444.838,340.844 C 445.6,341.024 446.481,340.919 447.482,340.529 C 448.577,340.103 449.333,339.539 449.752,338.838 C 450.084,338.309 450.148,337.784 449.946,337.264 C 449.717,336.677 449.233,336.343 448.495,336.262 C 447.966,336.207 446.688,336.382 444.663,336.786 C 441.642,337.394 439.498,337.703 438.233,337.712 C 436.968,337.721 435.764,337.371 434.62,336.664 C 433.476,335.957 432.655,334.962 432.155,333.681 C 431.61,332.28 431.546,330.913 431.966,329.582 C 432.384,328.25 433.21,327.056 434.444,325.999 C 435.678,324.942 437.495,323.946 439.897,323.01 C 442.433,322.022 444.38,321.487 445.738,321.403 C 447.097,321.32 448.339,321.528 449.464,322.027 C 450.588,322.527 451.688,323.366 452.763,324.547 L 445.332,328.318 C 444.865,327.715 444.338,327.345 443.746,327.206 C 442.938,327.029 442.081,327.117 441.174,327.47 C 440.253,327.829 439.647,328.254 439.354,328.744 C 439.061,329.235 439.004,329.714 439.187,330.181 C 439.389,330.702 439.81,330.992 440.448,331.05 C 441.086,331.109 442.341,330.897 444.212,330.414 C 447.041,329.665 449.223,329.308 450.757,329.34 C 452.292,329.373 453.607,329.759 454.702,330.501 C 455.797,331.243 456.583,332.22 457.056,333.435 C 457.535,334.663 457.63,336.002 457.341,337.452 C 457.053,338.902 456.245,340.281 454.918,341.59 C 453.591,342.899 451.552,344.089 448.804,345.159 C 444.919,346.672 441.938,347.196 439.859,346.73 C 437.775,346.262 436.104,345.099 434.842,343.239 z "
   id="path19" />
	<path
   d="M 451.87,309.465 L 459.956,306.138 L 462.221,311.641 L 454.135,314.968 L 451.87,309.465 z M 455.172,317.491 L 463.258,314.164 L 471.94,335.263 L 463.854,338.59 L 455.172,317.491 z "
   id="path21" />
	<path
   d="M 486.672,294.718 L 499.162,323.619 L 491.652,326.865 L 490.314,323.77 C 489.83,325.539 489.254,326.841 488.585,327.676 C 487.689,328.78 486.532,329.639 485.112,330.253 C 482.26,331.486 479.614,331.343 477.171,329.825 C 474.73,328.307 472.839,325.997 471.497,322.895 C 469.999,319.425 469.683,316.411 470.55,313.853 C 471.417,311.295 473.132,309.461 475.695,308.353 C 476.944,307.813 478.169,307.534 479.369,307.514 C 480.569,307.494 481.746,307.735 482.897,308.235 L 478.569,298.22 L 486.672,294.718 z M 486.569,316.568 C 485.859,314.925 484.981,313.85 483.935,313.343 C 482.889,312.836 481.833,312.812 480.769,313.272 C 479.835,313.675 479.222,314.401 478.925,315.449 C 478.63,316.497 478.876,317.934 479.667,319.761 C 480.405,321.47 481.271,322.581 482.265,323.095 C 483.259,323.609 484.237,323.659 485.197,323.244 C 486.221,322.801 486.902,322.031 487.24,320.934 C 487.576,319.837 487.354,318.382 486.569,316.568 z "
   id="path23" />
	<path
   d="M 523.251,302.529 L 507.301,309.804 C 508.027,311.016 508.806,311.809 509.639,312.185 C 510.817,312.734 512.026,312.726 513.264,312.161 C 514.045,311.805 514.7,311.27 515.225,310.558 C 515.541,310.115 515.805,309.467 516.015,308.615 L 524.183,305.763 C 523.935,308.395 523.17,310.55 521.89,312.228 C 520.609,313.907 518.385,315.468 515.219,316.913 C 512.469,318.167 510.129,318.766 508.198,318.71 C 506.267,318.654 504.4,318.018 502.594,316.803 C 500.789,315.588 499.365,313.84 498.326,311.559 C 496.846,308.315 496.687,305.215 497.849,302.26 C 499.013,299.305 501.425,296.993 505.087,295.322 C 508.058,293.967 510.608,293.347 512.738,293.461 C 514.868,293.575 516.772,294.281 518.45,295.578 C 520.128,296.875 521.591,298.891 522.839,301.628 L 523.251,302.529 z M 513.42,302.408 C 512.562,300.942 511.646,300.03 510.672,299.672 C 509.697,299.314 508.663,299.384 507.568,299.883 C 506.304,300.46 505.523,301.422 505.225,302.77 C 505.028,303.616 505.146,304.687 505.581,305.984 L 513.42,302.408 z "
   id="path25" />
</g>
<path
   d="M 89.902,132.923 C 89.902,132.923 103.825,117.675 141.705,97.781 C 148.951,93.975 172.931,82.447 201.976,71.204 C 216.543,65.566 234.787,60.087 251.191,56.384 C 283.473,49.503 307.816,46.328 338.511,46.328 C 388.254,46.328 498.857,60.087 498.857,151.117 C 498.857,196.103 467.632,232.093 431.118,246.909 L 431.118,223.095 C 458.639,207.217 475.043,177.051 476.63,155.353 L 476.63,144.236 C 475.572,140.004 475.043,134.181 473.456,129.948 C 471.869,124.654 469.224,119.364 466.575,114.07 C 457.052,96.605 436.941,82.846 422.653,77.023 C 415.244,73.849 407.304,70.674 399.897,69.084 C 391.429,66.968 364.97,61.678 352.798,61.678 L 312.048,61.678 C 253.683,65.46 200.014,79.06 142.176,108.251 C 130.977,113.901 111.161,124.981 89.786,146.356 C 68.273,167.869 59.62,198.749 59.62,223.096 C 59.62,298.777 143.233,315.184 198.801,317.301 L 240.077,316.772 C 299.347,312.537 361.796,298.249 421.595,266.492 L 421.595,299.836 C 366.557,327.886 310.461,341.115 255.426,345.351 C 249.603,345.88 238.489,346.938 236.903,346.938 L 202.505,346.938 C 149.587,343.764 68.089,330.531 46.392,260.144 C 44.276,252.734 42.688,238.975 42.688,237.914 L 42.688,221.51 C 44.805,191.868 57.091,161.502 89.902,132.923 z "
   style="fill-rule:evenodd"
   id="path27" />
<path
   d="M 169.954,193.409 L 169.954,304.534 C 169.954,304.534 205.871,267.696 213.277,260.099 C 222.746,271.748 247.735,296.027 291.507,295.92 C 323.326,295.842 343.326,284.98 354.501,275.881 C 366.939,265.755 374.976,252.342 374.976,241.712 C 374.976,232.854 369.163,221.554 359.807,212.222 C 350.508,202.947 329.265,187.403 291.477,187.502 C 247.443,187.617 222.956,211.108 213.688,222.457 C 206.257,215.12 169.954,179.276 169.954,179.276 L 169.954,193.409 L 169.954,193.409 z M 219.45,234.538 C 220.329,233.105 241.546,199.447 291.508,199.316 C 325.03,199.228 343.461,212.605 351.464,220.587 C 359.545,228.646 363.161,237.004 363.161,241.712 C 363.161,253.728 341.838,283.983 291.477,284.107 C 241.977,284.227 219.866,249.374 218.949,247.89 L 214.974,241.458 L 209.686,246.858 C 209.686,246.858 192.678,264.303 181.766,275.494 C 181.766,258.138 181.766,224.516 181.766,207.543 C 192.753,218.391 215.549,240.897 215.549,240.897 L 219.45,234.538 z "
   id="path29" />
<path
   d="M 339.736,240.188 C 338.129,243.334 335.624,246.758 332.898,246.758 C 330.089,246.758 327.505,243.445 325.815,240.332 C 320.188,240.39 312.976,240.464 312.976,240.464 C 313.592,242.318 319.379,258.571 332.898,258.571 C 343.97,258.571 350.463,246.933 352.554,240.055 C 352.555,240.055 345.351,240.13 339.736,240.188 z "
   id="path31" />
<path
   d="M 364.751,84.073 C 364.751,84.073 338.505,109.987 331.073,117.323 C 321.805,105.974 297.317,82.484 253.283,82.369 C 215.495,82.269 194.252,97.814 184.953,107.089 C 175.597,116.421 169.785,127.72 169.785,136.578 C 169.785,147.209 177.822,160.621 190.259,170.748 C 201.434,179.846 221.434,190.708 253.253,190.787 C 297.026,190.893 322.016,166.615 331.484,154.966 C 338.89,162.562 374.808,199.4 374.808,199.4 L 374.808,74.144 L 364.751,84.073 z M 253.282,178.974 C 202.922,178.85 181.599,148.595 181.599,136.578 C 181.599,131.87 185.216,123.513 193.296,115.454 C 201.299,107.472 219.73,94.095 253.253,94.183 C 303.215,94.314 324.433,127.972 325.312,129.405 L 329.203,135.748 L 334.508,130.537 C 334.508,130.537 352.009,113.258 362.995,102.41 C 362.995,119.384 362.995,153.006 362.995,170.362 C 352.084,159.171 329.796,136.312 329.796,136.312 L 325.813,142.758 C 324.895,144.241 302.784,179.094 253.282,178.974 z "
   id="path33" />
<path
   d="M 221.058,136.681 C 221.058,142.934 215.983,148.008 209.731,148.008 C 203.478,148.008 198.403,142.934 198.403,136.681 C 198.403,130.429 203.478,125.354 209.731,125.354 C 215.983,125.354 221.058,130.429 221.058,136.681 L 221.058,136.681 z "
   id="path35" />
<path
   d="M 196.688,136.681 C 196.688,143.872 202.539,149.723 209.73,149.723 C 216.921,149.723 222.772,143.872 222.772,136.681 C 222.772,129.49 216.921,123.639 209.73,123.639 C 202.539,123.64 196.688,129.49 196.688,136.681 z M 200.117,136.681 C 200.117,131.38 204.43,127.068 209.73,127.068 C 215.03,127.068 219.343,131.38 219.343,136.681 C 219.343,141.982 215.031,146.294 209.73,146.294 C 204.429,146.294 200.117,141.982 200.117,136.681 z "
   id="path37" />
<g
   id="g39">
	<path
   d="M 115.261,456.14 C 114.099,457.885 112.919,458.953 111.513,459.89 C 105.423,462.702 99.331,464.575 92.773,465.98 C 88.088,467.385 82.934,466.449 78.249,468.324 C 74.97,469.728 74.033,474.883 77.313,476.757 C 80.592,478.63 83.871,477.694 87.62,478.161 C 92.305,479.099 96.054,480.036 100.738,481.441 C 102.613,481.909 104.487,482.378 105.892,484.253 C 109.641,488.939 107.766,496.434 102.144,498.308 C 96.522,499.714 89.026,499.714 85.746,505.336 C 85.746,505.805 86.684,506.741 87.152,506.741 C 90.432,507.21 93.242,506.272 96.522,506.741 C 97.927,507.21 99.333,508.146 100.271,509.083 C 102.613,510.957 104.956,512.832 105.892,516.111 C 106.361,520.796 106.83,525.95 104.019,529.698 C 102.613,532.041 101.676,534.384 99.802,536.725 C 99.333,537.194 99.333,538.599 99.802,539.067 C 103.082,540.942 107.297,540.005 110.578,541.411 C 111.515,541.88 111.982,542.348 112.451,543.285 C 114.326,547.502 111.514,551.718 108.235,553.124 C 106.361,554.061 104.486,554.998 102.612,554.998 C 90.899,555.466 79.186,553.124 67.474,550.313 C 64.662,549.375 65.6,545.159 68.411,543.752 C 70.754,543.284 73.096,542.347 75.439,541.879 C 77.781,541.41 80.124,540.473 81.53,539.536 C 87.152,535.788 92.305,530.166 89.963,523.138 C 89.495,520.795 87.152,519.39 84.81,519.39 C 76.845,519.39 69.817,523.607 62.321,526.886 C 60.916,527.824 59.51,529.229 58.573,530.635 C 57.167,533.914 55.761,536.725 55.293,540.004 C 55.293,542.816 56.698,545.627 57.167,548.439 C 57.636,553.59 54.355,559.683 48.734,558.745 C 44.985,558.277 40.769,557.808 38.426,554.06 C 37.489,551.717 36.085,549.843 35.615,547.501 C 34.21,541.41 34.678,535.319 35.147,529.229 C 35.615,528.291 36.553,527.356 36.553,526.418 C 38.427,519.39 42.175,513.768 47.797,510.956 C 49.203,510.019 51.546,511.426 51.546,512.831 C 52.483,516.11 50.608,519.39 49.203,522.201 C 48.735,523.606 49.672,525.48 51.077,525.48 C 52.483,525.011 53.888,524.543 54.825,523.606 C 59.042,517.985 64.664,514.236 70.286,511.893 C 74.034,510.488 78.25,509.551 81.062,506.74 C 82.467,505.335 81.531,502.523 82.467,501.118 C 82.935,500.649 83.872,500.181 84.342,499.244 C 84.811,497.37 83.873,495.496 82,494.558 C 75.908,492.216 68.413,495.496 64.197,501.118 C 61.853,504.397 57.169,504.397 53.421,505.804 C 51.078,506.741 48.736,509.082 46.393,508.146 C 43.582,506.741 40.303,507.209 37.491,505.804 C 35.148,504.866 31.4,504.398 30.932,501.587 C 29.995,499.244 29.526,495.965 30.932,494.559 C 37.023,488 45.924,486.594 53.889,481.441 C 56.7,479.567 59.512,473.007 55.295,472.071 C 52.016,471.133 48.736,473.476 45.456,474.883 C 41.708,476.287 37.492,476.287 33.275,477.694 C 30.464,478.162 28.121,475.35 25.31,474.415 C 20.154,472.07 15,468.79 10.783,463.637 C 9.846,462.232 10.315,459.89 11.721,459.89 C 17.343,458.952 23.433,459.89 29.055,460.358 C 37.489,461.295 45.922,458.953 54.355,457.079 C 55.761,456.61 58.104,456.141 58.572,454.267 C 59.509,449.581 59.509,445.366 60.914,441.149 C 61.851,437.401 62.319,433.653 64.194,429.905 C 66.067,426.157 70.284,420.534 75.438,423.814 C 75.906,423.814 74.97,425.219 74.5,426.157 C 74.032,434.591 75.438,442.555 76.375,450.988 C 76.375,451.457 77.313,452.862 78.249,453.331 C 89.025,453.799 99.332,450.988 109.171,446.772 C 111.982,445.366 113.856,442.555 116.668,441.149 C 118.073,440.681 119.479,441.618 119.479,442.555 C 121.352,447.239 118.072,451.924 115.261,456.14 z "
   style="fill:#ffffff"
   id="path41" />
	<g
   id="g43">
		<path
   d="M 370.356,475.808 C 374.005,479.199 378.789,483.305 375.509,487.522 C 373.167,490.799 369.418,497.36 364.265,494.081 C 366.606,490.8 363.796,487.989 360.985,487.053 C 355.364,485.649 349.272,485.178 343.649,487.99 C 338.497,489.864 335.216,495.018 330.063,497.361 C 328.658,498.299 327.251,499.236 325.378,499.704 C 324.91,499.704 323.972,500.641 323.035,501.108 C 319.756,502.046 316.008,503.92 312.727,503.451 C 308.042,502.983 303.357,504.389 299.141,502.046 C 298.672,502.046 297.735,501.578 297.267,500.641 C 296.797,499.704 296.797,498.768 296.329,497.829 C 294.454,495.487 295.861,492.676 297.734,490.801 C 301.483,485.179 307.573,482.838 313.195,480.027 C 315.538,478.622 318.349,478.153 320.691,477.684 C 324.909,475.81 324.909,470.657 323.97,466.909 C 323.501,465.034 321.159,462.692 319.286,463.63 C 316.474,465.505 313.194,465.972 310.384,466.909 C 306.636,467.847 303.356,471.126 299.14,469.72 C 298.202,469.252 297.734,468.316 296.796,467.847 C 294.923,466.909 293.049,466.909 291.175,465.972 C 288.832,465.505 286.957,464.098 284.615,462.693 C 283.21,462.224 281.803,460.819 280.867,460.351 C 279.462,459.413 278.056,458.477 276.651,458.007 C 274.776,456.602 271.965,455.196 273.839,452.386 C 286.489,452.854 299.139,453.323 312.257,450.511 C 315.536,449.574 320.221,451.449 322.095,448.168 C 325.844,443.483 323.969,436.924 327.718,431.771 C 330.529,427.554 334.278,421.933 340.366,422.869 C 341.772,422.869 342.71,424.744 342.24,426.148 C 339.898,431.302 339.898,436.924 340.835,442.547 C 341.304,443.484 342.24,444.421 343.179,444.421 C 348.8,444.421 353.954,442.547 359.576,441.142 C 361.451,440.672 363.325,439.268 365.198,438.798 C 371.289,436.924 377.381,435.05 383.47,436.924 C 385.343,437.862 386.747,440.203 385.343,442.078 C 383.47,444.889 381.126,446.764 378.316,448.639 C 377.847,448.639 377.38,448.639 376.911,448.639 C 375.973,449.575 375.506,450.043 374.568,450.511 C 370.819,451.915 367.073,453.323 363.325,455.197 C 357.235,457.072 351.143,458.008 345.052,460.351 C 341.773,461.755 343.646,465.972 344.584,469.252 C 344.584,469.72 345.989,470.657 346.458,470.657 C 354.427,470.654 363.797,469.717 370.356,475.808 z "
   style="fill:#ffffff"
   id="path45" />
		<path
   d="M 382.068,541.398 C 379.256,538.588 376.447,536.245 371.761,535.777 C 367.544,534.84 371.292,529.686 372.23,526.407 C 373.168,523.596 372.698,520.785 372.698,517.974 C 372.698,515.162 371.761,512.352 370.823,510.01 C 369.888,508.602 369.888,507.197 368.949,505.792 C 367.077,503.448 364.265,501.105 361.455,500.638 C 357.239,499.701 353.021,499.701 348.804,500.638 C 344.119,501.576 339.435,501.576 335.217,502.981 C 331.002,504.855 326.784,506.259 322.568,508.602 C 319.757,510.01 317.415,513.756 314.135,514.694 C 309.449,515.632 313.197,509.541 311.323,507.198 C 310.386,506.729 308.98,506.729 308.044,507.667 C 306.169,510.478 303.358,512.353 301.953,515.163 C 300.548,517.505 299.142,519.848 298.205,522.19 C 296.331,527.344 294.926,532.498 295.393,538.12 C 295.863,541.398 296.798,544.211 297.736,547.49 C 298.205,550.768 299.611,554.517 301.953,556.86 C 305.232,559.202 308.98,559.202 312.728,557.797 C 316.477,555.923 316.945,551.239 320.693,550.302 C 325.379,549.364 330.532,549.364 335.216,550.302 C 345.992,552.176 355.83,551.24 366.138,552.644 C 371.761,553.113 378.788,551.707 383.005,547.022 C 384.411,545.146 383.475,542.805 382.068,541.398 z M 345.525,534.841 C 340.838,537.185 335.685,536.714 331.002,539.057 C 330.064,539.526 329.127,539.057 328.189,539.057 C 325.847,539.994 323.972,541.399 321.63,542.805 C 319.756,543.743 318.351,541.867 317.88,540.463 C 317.413,537.651 316.944,534.841 317.88,532.498 C 318.351,531.56 318.818,530.623 319.288,529.686 C 319.288,529.218 319.288,528.281 319.288,527.812 C 320.224,526.407 321.63,525.001 323.035,524.064 C 329.126,518.442 336.153,513.756 345.055,514.694 C 347.399,514.694 349.272,517.035 350.677,518.91 C 351.615,520.785 351.615,522.658 351.615,524.533 C 351.616,528.748 349.272,532.966 345.525,534.841 z "
   style="fill:#ffffff"
   id="path47" />
	</g>
	<g
   id="g49">
		<path
   d="M 529.894,530.711 C 520.055,530.242 510.686,529.306 500.846,532.116 C 495.225,533.991 490.071,538.206 483.979,537.27 C 479.295,536.333 473.206,537.739 470.862,532.584 C 469.924,530.71 471.799,528.836 472.736,527.9 C 477.421,523.213 484.917,522.277 489.135,516.654 C 491.007,515.25 491.946,512.907 491.477,510.094 C 491.007,508.221 490.071,505.879 489.135,504.004 C 487.728,500.258 484.916,497.443 481.169,495.571 C 477.42,494.164 473.673,496.039 469.924,495.101 C 468.519,495.101 468.051,493.228 468.519,491.822 C 469.924,489.012 472.736,489.012 475.079,487.607 C 476.017,486.668 478.358,486.202 479.765,485.263 C 490.072,478.702 499.442,473.551 506.469,463.243 C 507.407,461.837 507.875,460.899 508.345,459.493 C 509.282,456.683 509.141,453.385 508.812,450.593 C 507.875,442.628 503.191,434.664 496.163,431.383 C 489.137,428.104 481.639,428.572 474.142,429.979 C 469.457,430.447 464.303,430.916 460.087,433.258 C 455.402,435.601 450.718,437.475 446.032,440.754 C 441.345,444.501 436.661,447.78 433.849,452.935 C 432.912,454.81 434.318,458.089 431.975,459.494 C 428.228,461.369 426.353,456.215 425.415,453.404 C 424.478,451.531 422.604,449.656 422.136,447.781 C 421.199,444.502 420.263,441.222 417.451,439.348 C 416.045,438.411 414.639,440.754 414.639,442.16 C 413.702,446.377 414.171,450.126 413.702,453.874 C 413.233,454.811 414.639,455.746 414.171,456.685 C 411.829,460.432 413.233,465.119 413.233,468.867 C 413.233,474.02 414.171,479.642 416.513,484.328 C 418.387,488.076 420.261,492.761 424.947,494.165 C 428.695,495.103 433.847,495.103 435.722,491.823 C 436.659,490.886 437.126,488.544 438.533,487.608 C 439.939,487.138 440.876,488.544 441.812,489.48 C 443.687,490.886 444.624,493.698 447.435,494.165 C 449.777,494.635 452.588,493.698 454.93,494.165 C 458.679,495.572 456.805,500.259 454.93,502.599 C 452.588,505.88 449.777,508.222 447.903,511.5 C 446.03,514.78 444.624,518.06 446.03,521.34 C 446.498,522.278 448.372,523.214 448.372,524.151 C 449.777,529.773 443.218,532.116 439.001,533.052 C 425.885,535.396 411.829,530.241 402.458,540.549 C 398.241,544.767 402.927,549.45 407.144,551.325 C 410.892,552.73 415.108,553.199 419.324,552.261 C 427.758,549.918 434.786,546.172 442.751,543.36 C 445.562,542.422 448.842,542.422 451.652,543.36 C 462.429,546.173 472.735,545.703 483.043,549.919 C 487.728,551.794 492.881,550.857 498.035,551.794 C 499.909,551.794 500.846,550.39 502.253,550.39 C 502.253,549.452 502.721,548.983 503.19,548.983 C 504.595,548.983 505.064,548.046 506.001,547.579 C 506.939,546.641 507.875,544.768 509.281,544.3 C 510.686,543.83 512.092,542.893 513.497,542.424 C 517.245,541.02 520.524,538.207 524.273,536.335 C 525.678,535.864 527.551,535.397 528.958,534.929 C 529.895,534.46 531.77,533.992 531.77,532.117 C 531.769,531.181 530.363,530.711 529.894,530.711 z M 456.807,519.936 C 455.869,520.405 454.932,519.936 454.932,518.061 C 454.932,516.656 455.87,515.719 457.276,516.187 C 458.212,516.656 458.212,518.061 458.212,518.999 C 458.212,519.937 457.275,519.466 456.807,519.936 z M 457.743,479.644 C 455.869,481.987 452.59,481.987 451.183,479.175 C 450.716,477.301 453.058,475.894 453.996,474.958 C 455.043,473.91 457.275,473.085 458.211,474.958 C 458.681,476.364 458.681,478.237 457.743,479.644 z M 459.617,458.559 C 459.147,458.559 457.743,459.029 457.275,459.029 C 450.716,464.182 446.031,470.274 443.688,478.238 C 443.688,479.176 444.155,480.112 443.688,481.049 C 442.281,482.924 439.471,483.392 438.534,481.049 C 438.065,478.706 437.128,476.365 437.128,474.49 C 437.128,459.497 449.31,445.912 464.302,442.632 C 467.114,442.163 468.989,440.758 471.798,441.226 C 476.952,442.164 481.169,445.913 483.043,451.535 C 483.979,454.346 483.512,457.625 483.512,460.435 C 483.512,463.248 481.169,465.59 479.764,468.4 C 477.889,471.212 476.016,476.834 471.33,476.366 C 470.861,473.087 474.141,469.805 476.016,466.995 C 477.42,464.652 476.953,461.842 476.016,459.498 C 475.078,458.094 473.205,456.688 471.798,456.219 C 467.582,454.344 463.365,455.748 459.617,458.559 z M 469.456,510.564 C 469.786,509.57 471.33,510.095 471.798,510.095 C 472.268,510.564 472.268,511.97 471.33,512.439 C 469.924,512.908 468.988,511.971 469.456,510.564 z "
   style="fill:#ffffff"
   id="path51" />
		<path
   d="M 499.909,510.564 C 498.504,514.314 500.846,518.53 503.189,522.278 C 505.063,525.09 508.343,527.901 512.558,526.026 C 516.775,524.151 516.775,518.53 513.496,516.655 C 512.558,516.186 511.623,514.781 510.685,514.781 C 510.216,514.314 509.66,513.457 508.81,512.439 C 506.468,509.628 501.314,506.816 499.909,510.564 z "
   style="fill:#ffffff"
   id="path53" />
	</g>
	<path
   d="M 262.722,534.181 C 258.504,534.181 254.288,533.244 250.071,533.244 C 236.485,534.181 223.834,538.398 209.779,535.587 C 205.563,534.649 207.905,528.56 209.779,525.748 C 213.528,518.72 221.961,516.378 224.771,508.882 C 225.709,506.069 225.709,502.322 224.303,499.511 C 221.023,493.889 213.995,493.889 207.905,493.421 C 205.562,489.673 210.247,487.799 212.59,487.331 C 219.149,484.986 224.528,481.502 229.456,477.022 C 234.61,472.337 239.764,468.589 242.106,462.5 C 243.981,458.282 244.917,453.598 243.981,448.913 C 243.513,447.037 243.513,444.695 242.575,442.821 C 240.232,439.542 238.359,435.794 234.611,433.451 C 233.674,432.981 232.737,432.513 231.799,432.513 C 229.925,431.576 228.52,430.171 226.646,429.234 C 215.87,426.892 205.095,429.703 195.255,433.92 C 192.444,434.857 189.632,437.668 186.353,439.542 C 185.885,440.011 184.478,440.947 183.542,441.415 C 180.73,444.227 177.452,446.102 175.108,449.849 C 173.234,452.661 171.829,455.002 170.423,457.345 C 169.485,458.75 168.548,459.688 168.548,461.093 C 168.08,462.031 166.674,463.436 165.268,462.967 C 162.457,461.563 161.52,458.282 160.584,455.94 C 160.115,455.002 159.646,454.066 159.178,453.129 C 158.241,452.191 157.305,451.255 156.836,450.317 C 154.961,445.631 153.087,440.947 148.872,438.136 C 147.934,437.667 146.528,438.136 145.592,438.136 C 144.186,438.603 144.654,440.01 144.186,440.947 C 143.249,444.226 145.123,447.974 145.123,451.255 C 145.592,457.815 146.528,464.373 148.403,470.463 C 149.809,474.681 149.34,479.365 151.214,484.051 C 151.683,484.519 152.152,484.987 152.62,485.456 C 154.026,492.015 159.647,498.105 166.206,496.231 C 169.955,494.826 172.766,491.078 173.233,487.331 C 174.638,480.303 172.765,473.274 176.513,466.715 C 183.072,455.002 192.911,443.758 206.966,443.758 C 210.246,443.758 214.464,444.696 217.274,447.037 C 219.616,449.381 221.49,452.66 221.959,455.939 C 222.895,458.75 220.554,461.092 219.148,463.435 C 219.148,463.904 219.148,464.841 219.148,465.31 C 217.743,467.652 215.868,469.527 213.526,471.4 C 212.12,471.869 208.84,473.274 209.309,470.931 C 209.777,466.714 213.056,460.624 208.84,458.282 C 206.028,456.407 201.813,456.407 198.064,458.75 C 193.379,462.5 189.164,465.311 184.477,469.058 C 182.603,470.463 182.135,472.807 181.198,474.681 C 180.26,477.491 181.198,480.303 183.072,481.709 C 185.884,484.519 190.569,485.456 194.317,487.331 C 197.128,489.204 197.597,493.889 195.254,496.231 C 191.037,499.51 186.821,502.322 183.072,506.069 C 180.261,508.882 178.856,511.692 177.918,514.972 C 176.981,519.657 181.198,521.062 182.604,524.342 C 184.01,527.621 179.325,529.027 176.982,530.432 C 165.738,536.054 154.025,537.46 141.844,535.586 C 140.438,535.117 139.032,536.99 139.969,538.398 C 142.312,543.082 148.403,543.55 153.088,546.362 C 154.026,547.299 155.431,548.236 157.305,548.705 C 157.773,548.705 158.71,549.642 159.178,549.642 C 161.99,551.048 164.801,551.516 168.08,551.516 C 168.548,551.516 169.485,552.453 169.955,552.922 C 172.297,553.39 174.639,553.39 176.514,552.452 C 178.857,551.515 181.669,549.641 184.011,548.705 C 191.976,545.426 200.408,546.362 208.842,547.767 C 213.058,548.236 217.276,549.641 221.492,550.11 C 222.897,550.11 224.771,550.578 226.177,551.515 C 227.115,551.983 228.989,551.047 229.926,551.515 C 230.863,551.983 231.8,552.452 232.737,552.921 C 234.142,553.389 235.548,553.389 236.954,552.921 C 244.45,549.641 250.54,544.487 257.568,540.738 C 259.91,539.801 262.722,538.864 264.127,536.99 C 264.595,536.055 264.126,534.181 262.722,534.181 z M 195.723,475.617 C 195.255,475.617 194.786,475.617 194.318,475.617 C 192.837,475.617 192.912,473.274 193.85,472.338 C 195.723,471.4 197.128,474.211 195.723,475.617 z M 192.912,518.252 C 191.975,518.252 191.975,519.19 191.507,519.19 C 190.101,519.19 189.632,517.784 189.632,516.378 C 189.632,514.504 191.037,513.098 192.444,514.035 C 193.381,514.973 192.912,516.847 192.912,518.252 z "
   style="fill:#ffffff"
   id="path55" />
</g>
<g
   id="g57">
	<path
   d="M 28.531,586.091 L 28.531,595.247 L 33.594,595.247 L 33.594,601.997 L 28.531,601.997 L 28.531,610.51 C 28.531,611.533 28.629,612.211 28.825,612.542 C 29.127,613.054 29.655,613.31 30.408,613.31 C 31.087,613.31 32.036,613.115 33.258,612.723 L 33.937,619.093 C 31.657,619.591 29.527,619.841 27.549,619.841 C 25.254,619.841 23.562,619.546 22.475,618.959 C 21.388,618.371 20.583,617.478 20.062,616.278 C 19.541,615.081 19.281,613.139 19.281,610.456 L 19.281,601.997 L 15.875,601.997 L 15.875,595.247 L 19.281,595.247 L 19.281,590.827 L 28.531,586.091 z "
   style="fill:#ffffff"
   id="path59" />
	<path
   d="M 63.352,619.31 L 54.745,619.31 L 54.745,615.398 C 53.461,617 52.166,618.141 50.86,618.822 C 49.553,619.502 47.949,619.842 46.047,619.842 C 43.51,619.842 41.521,619.084 40.078,617.567 C 38.635,616.05 37.915,613.713 37.915,610.557 L 37.915,595.248 L 47.196,595.248 L 47.196,608.461 C 47.196,609.969 47.474,611.039 48.032,611.673 C 48.59,612.307 49.373,612.623 50.382,612.623 C 51.482,612.623 52.382,612.201 53.083,611.356 C 53.783,610.511 54.134,608.996 54.134,606.808 L 54.134,595.247 L 63.353,595.247 L 63.353,619.31 L 63.352,619.31 z "
   style="fill:#ffffff"
   id="path61" />
	<path
   d="M 69.063,595.247 L 77.709,595.247 L 77.709,599.194 C 78.541,597.491 79.399,596.318 80.284,595.676 C 81.169,595.035 82.262,594.715 83.562,594.715 C 84.923,594.715 86.413,595.135 88.031,595.973 L 85.173,602.551 C 84.084,602.098 83.222,601.871 82.587,601.871 C 81.377,601.871 80.439,602.369 79.774,603.365 C 78.821,604.769 78.345,607.396 78.345,611.246 L 78.345,619.309 L 69.064,619.309 L 69.064,595.247 L 69.063,595.247 z "
   style="fill:#ffffff"
   id="path63" />
	<path
   d="M 91.884,595.247 L 100.468,595.247 L 100.468,599.169 C 101.751,597.571 103.05,596.431 104.364,595.745 C 105.677,595.059 107.279,594.716 109.166,594.716 C 111.718,594.716 113.715,595.475 115.157,596.991 C 116.599,598.509 117.321,600.852 117.321,604.023 L 117.321,619.309 L 108.04,619.309 L 108.04,606.08 C 108.04,604.57 107.761,603.502 107.204,602.875 C 106.647,602.248 105.863,601.935 104.854,601.935 C 103.739,601.935 102.835,602.358 102.142,603.204 C 101.449,604.05 101.102,605.568 101.102,607.758 L 101.102,619.311 L 91.883,619.311 L 91.883,595.247 L 91.884,595.247 z "
   style="fill:#ffffff"
   id="path65" />
	<path
   d="M 135.669,595.247 L 145.401,595.247 L 150.372,611.267 L 154.958,595.247 L 164.044,595.247 L 154.514,620.97 C 153.427,623.904 152.317,625.885 151.184,626.913 C 149.583,628.364 147.144,629.091 143.867,629.091 C 142.538,629.091 140.484,628.909 137.706,628.547 L 136.981,622.11 C 138.31,622.534 139.791,622.747 141.422,622.747 C 142.509,622.747 143.389,622.496 144.062,621.995 C 144.734,621.493 145.304,620.597 145.773,619.306 L 135.669,595.247 z "
   style="fill:#ffffff"
   id="path67" />
	<path
   d="M 164.761,607.347 C 164.761,603.679 165.999,600.658 168.474,598.281 C 170.95,595.905 174.293,594.717 178.505,594.717 C 183.32,594.717 186.958,596.113 189.419,598.905 C 191.397,601.153 192.385,603.923 192.385,607.212 C 192.385,610.909 191.158,613.939 188.705,616.3 C 186.252,618.662 182.859,619.843 178.527,619.843 C 174.663,619.843 171.538,618.863 169.153,616.901 C 166.225,614.469 164.761,611.284 164.761,607.347 z M 174.011,607.329 C 174.011,609.472 174.443,611.057 175.308,612.083 C 176.173,613.109 177.26,613.622 178.569,613.622 C 179.893,613.622 180.98,613.116 181.83,612.105 C 182.68,611.094 183.105,609.471 183.105,607.239 C 183.105,605.157 182.676,603.606 181.819,602.587 C 180.962,601.569 179.901,601.06 178.637,601.06 C 177.298,601.06 176.192,601.578 175.32,602.611 C 174.448,603.644 174.011,605.218 174.011,607.329 z "
   style="fill:#ffffff"
   id="path69" />
	<path
   d="M 222.19,619.31 L 213.583,619.31 L 213.583,615.398 C 212.299,617 211.004,618.141 209.698,618.822 C 208.391,619.502 206.787,619.842 204.885,619.842 C 202.348,619.842 200.359,619.084 198.916,617.567 C 197.473,616.05 196.753,613.713 196.753,610.557 L 196.753,595.248 L 206.034,595.248 L 206.034,608.461 C 206.034,609.969 206.312,611.039 206.87,611.673 C 207.428,612.307 208.211,612.623 209.22,612.623 C 210.32,612.623 211.22,612.201 211.921,611.356 C 212.621,610.511 212.972,608.996 212.972,606.808 L 212.972,595.247 L 222.191,595.247 L 222.191,619.31 L 222.19,619.31 z "
   style="fill:#ffffff"
   id="path71" />
	<path
   d="M 227.901,595.247 L 236.547,595.247 L 236.547,599.194 C 237.379,597.491 238.237,596.318 239.122,595.676 C 240.007,595.035 241.1,594.715 242.4,594.715 C 243.761,594.715 245.251,595.135 246.869,595.973 L 244.011,602.551 C 242.922,602.098 242.06,601.871 241.425,601.871 C 240.215,601.871 239.277,602.369 238.612,603.365 C 237.659,604.769 237.183,607.396 237.183,611.246 L 237.183,619.309 L 227.902,619.309 L 227.902,595.247 L 227.901,595.247 z "
   style="fill:#ffffff"
   id="path73" />
	<path
   d="M 289.203,586.091 L 289.203,619.31 L 280.57,619.31 L 280.57,615.747 C 279.363,617.256 278.261,618.273 277.265,618.801 C 275.937,619.494 274.458,619.842 272.828,619.842 C 269.554,619.842 267.052,618.598 265.325,616.108 C 263.598,613.618 262.734,610.592 262.734,607.031 C 262.734,603.048 263.688,599.999 265.597,597.886 C 267.506,595.773 269.931,594.717 272.874,594.717 C 274.308,594.717 275.609,594.958 276.778,595.441 C 277.947,595.924 278.985,596.647 279.89,597.612 L 279.89,586.092 L 289.203,586.092 L 289.203,586.091 z M 279.959,607.205 C 279.959,605.319 279.559,603.911 278.76,602.983 C 277.961,602.055 276.951,601.59 275.73,601.59 C 274.66,601.59 273.762,602.035 273.04,602.926 C 272.315,603.817 271.954,605.311 271.954,607.408 C 271.954,609.369 272.327,610.806 273.073,611.721 C 273.819,612.633 274.743,613.09 275.844,613.09 C 277.02,613.09 277.999,612.63 278.783,611.709 C 279.566,610.79 279.959,609.288 279.959,607.205 z "
   style="fill:#ffffff"
   id="path75" />
	<path
   d="M 294.945,595.247 L 303.591,595.247 L 303.591,599.194 C 304.423,597.491 305.281,596.318 306.166,595.676 C 307.051,595.035 308.144,594.715 309.444,594.715 C 310.805,594.715 312.295,595.135 313.914,595.973 L 311.056,602.551 C 309.967,602.098 309.105,601.871 308.469,601.871 C 307.259,601.871 306.322,602.369 305.656,603.365 C 304.703,604.769 304.227,607.396 304.227,611.246 L 304.227,619.309 L 294.946,619.309 L 294.946,595.247 L 294.945,595.247 z "
   style="fill:#ffffff"
   id="path77" />
	<path
   d="M 342.921,609.56 L 324.421,609.56 C 324.587,611.041 324.986,612.145 325.62,612.871 C 326.511,613.914 327.673,614.435 329.107,614.435 C 330.012,614.435 330.873,614.209 331.688,613.758 C 332.186,613.473 332.721,612.969 333.295,612.247 L 342.389,613.091 C 340.999,615.499 339.323,617.226 337.36,618.273 C 335.396,619.318 332.58,619.841 328.91,619.841 C 325.723,619.841 323.216,619.392 321.389,618.494 C 319.562,617.596 318.047,616.171 316.847,614.216 C 315.646,612.263 315.046,609.964 315.046,607.323 C 315.046,603.566 316.25,600.526 318.66,598.202 C 321.07,595.878 324.397,594.716 328.643,594.716 C 332.087,594.716 334.807,595.237 336.801,596.278 C 338.795,597.319 340.314,598.828 341.356,600.803 C 342.399,602.78 342.92,605.351 342.92,608.519 L 342.92,609.56 L 342.921,609.56 z M 333.546,605.153 C 333.364,603.377 332.884,602.104 332.105,601.337 C 331.326,600.57 330.3,600.185 329.029,600.185 C 327.561,600.185 326.388,600.765 325.51,601.924 C 324.95,602.647 324.595,603.724 324.444,605.153 L 333.546,605.153 z "
   style="fill:#ffffff"
   id="path79" />
	<path
   d="M 355.569,603.028 L 346.756,602.09 C 347.088,600.557 347.567,599.35 348.194,598.471 C 348.82,597.59 349.722,596.827 350.9,596.181 C 351.745,595.715 352.907,595.354 354.386,595.098 C 355.865,594.843 357.466,594.715 359.187,594.715 C 361.949,594.715 364.167,594.869 365.843,595.18 C 367.519,595.489 368.915,596.135 370.032,597.116 C 370.817,597.796 371.435,598.759 371.888,600.004 C 372.341,601.249 372.568,602.439 372.568,603.57 L 372.568,614.191 C 372.568,615.324 372.639,616.211 372.783,616.852 C 372.927,617.493 373.24,618.313 373.723,619.309 L 365.057,619.309 C 364.708,618.688 364.482,618.213 364.375,617.887 C 364.27,617.562 364.163,617.05 364.058,616.352 C 362.852,617.515 361.654,618.346 360.463,618.844 C 358.834,619.508 356.942,619.84 354.787,619.84 C 351.923,619.84 349.748,619.176 348.263,617.848 C 346.779,616.52 346.036,614.883 346.036,612.936 C 346.036,611.11 346.571,609.608 347.641,608.43 C 348.71,607.254 350.685,606.378 353.565,605.805 C 357.016,605.11 359.254,604.623 360.28,604.344 C 361.304,604.065 362.39,603.699 363.536,603.246 C 363.536,602.112 363.303,601.318 362.836,600.864 C 362.369,600.41 361.549,600.183 360.375,600.183 C 358.87,600.183 357.741,600.423 356.989,600.906 C 356.404,601.283 355.931,601.99 355.569,603.028 z M 363.538,607.903 C 362.275,608.354 360.96,608.753 359.593,609.098 C 357.73,609.594 356.55,610.083 356.055,610.565 C 355.543,611.061 355.288,611.626 355.288,612.256 C 355.288,612.979 355.539,613.569 356.043,614.027 C 356.546,614.486 357.286,614.715 358.264,614.715 C 359.285,614.715 360.236,614.467 361.115,613.971 C 361.994,613.475 362.618,612.869 362.986,612.155 C 363.354,611.441 363.539,610.512 363.539,609.37 L 363.539,607.903 L 363.538,607.903 z "
   style="fill:#ffffff"
   id="path81" />
	<path
   d="M 378.186,595.247 L 386.801,595.247 L 386.801,598.774 C 388.041,597.308 389.291,596.265 390.554,595.645 C 391.817,595.026 393.339,594.715 395.123,594.715 C 397.043,594.715 398.561,595.055 399.68,595.736 C 400.799,596.417 401.713,597.428 402.424,598.774 C 403.871,597.202 405.19,596.133 406.381,595.566 C 407.572,594.999 409.041,594.715 410.791,594.715 C 413.368,594.715 415.381,595.482 416.828,597.014 C 418.275,598.546 418.998,600.944 418.998,604.203 L 418.998,619.308 L 409.748,619.308 L 409.748,605.603 C 409.748,604.515 409.538,603.707 409.118,603.179 C 408.502,602.349 407.736,601.933 406.82,601.933 C 405.74,601.933 404.869,602.326 404.208,603.111 C 403.547,603.896 403.217,605.158 403.217,606.894 L 403.217,619.308 L 393.967,619.308 L 393.967,606.067 C 393.967,605.011 393.906,604.295 393.785,603.917 C 393.59,603.313 393.249,602.826 392.765,602.457 C 392.281,602.088 391.714,601.902 391.064,601.902 C 390.005,601.902 389.136,602.302 388.457,603.101 C 387.775,603.902 387.436,605.214 387.436,607.04 L 387.436,619.308 L 378.186,619.308 L 378.186,595.247 z "
   style="fill:#ffffff"
   id="path83" />
	<path
   d="M 422.917,612.591 L 432.073,611.747 C 432.452,612.833 432.982,613.61 433.664,614.077 C 434.346,614.545 435.255,614.778 436.392,614.778 C 437.634,614.778 438.596,614.514 439.279,613.988 C 439.809,613.597 440.074,613.108 440.074,612.521 C 440.074,611.86 439.723,611.348 439.023,610.987 C 438.521,610.731 437.197,610.415 435.052,610.039 C 431.849,609.482 429.624,608.967 428.378,608.492 C 427.132,608.017 426.082,607.216 425.229,606.085 C 424.375,604.955 423.949,603.667 423.949,602.22 C 423.949,600.638 424.41,599.275 425.332,598.129 C 426.253,596.983 427.522,596.129 429.139,595.564 C 430.756,595 432.924,594.716 435.644,594.716 C 438.514,594.716 440.633,594.935 442,595.374 C 443.367,595.812 444.508,596.491 445.422,597.413 C 446.336,598.335 447.095,599.582 447.699,601.153 L 438.949,601.997 C 438.722,601.232 438.345,600.671 437.817,600.31 C 437.091,599.831 436.215,599.59 435.189,599.59 C 434.147,599.59 433.388,599.775 432.913,600.143 C 432.437,600.512 432.199,600.959 432.199,601.486 C 432.199,602.073 432.501,602.516 433.104,602.817 C 433.707,603.118 435.021,603.389 437.045,603.63 C 440.111,603.977 442.393,604.458 443.889,605.077 C 445.384,605.694 446.529,606.576 447.322,607.722 C 448.115,608.868 448.511,610.126 448.511,611.497 C 448.511,612.884 448.092,614.233 447.253,615.545 C 446.414,616.857 445.092,617.9 443.286,618.677 C 441.479,619.452 439.02,619.841 435.907,619.841 C 431.509,619.841 428.376,619.212 426.51,617.954 C 424.644,616.696 423.446,614.909 422.917,612.591 z "
   style="fill:#ffffff"
   id="path85" />
	<path
   d="M 467.252,607.347 C 467.252,603.679 468.489,600.658 470.965,598.281 C 473.441,595.905 476.784,594.717 480.996,594.717 C 485.811,594.717 489.449,596.113 491.91,598.905 C 493.888,601.153 494.877,603.923 494.877,607.212 C 494.877,610.909 493.65,613.939 491.197,616.3 C 488.744,618.662 485.351,619.843 481.018,619.843 C 477.154,619.843 474.029,618.863 471.644,616.901 C 468.716,614.469 467.252,611.284 467.252,607.347 z M 476.502,607.329 C 476.502,609.472 476.934,611.057 477.799,612.083 C 478.664,613.109 479.751,613.622 481.06,613.622 C 482.384,613.622 483.471,613.116 484.321,612.105 C 485.171,611.094 485.596,609.471 485.596,607.239 C 485.596,605.157 485.167,603.606 484.31,602.587 C 483.453,601.569 482.392,601.06 481.128,601.06 C 479.789,601.06 478.683,601.578 477.811,602.611 C 476.938,603.644 476.502,605.218 476.502,607.329 z "
   style="fill:#ffffff"
   id="path87" />
	<path
   d="M 499.338,595.247 L 507.922,595.247 L 507.922,599.169 C 509.205,597.571 510.504,596.431 511.818,595.745 C 513.131,595.059 514.732,594.716 516.62,594.716 C 519.172,594.716 521.169,595.475 522.611,596.991 C 524.053,598.509 524.775,600.852 524.775,604.023 L 524.775,619.309 L 515.494,619.309 L 515.494,606.08 C 515.494,604.57 515.215,603.502 514.657,602.875 C 514.099,602.248 513.316,601.935 512.307,601.935 C 511.192,601.935 510.288,602.358 509.595,603.204 C 508.902,604.05 508.556,605.568 508.556,607.758 L 508.556,619.311 L 499.337,619.311 L 499.337,595.247 L 499.338,595.247 z "
   style="fill:#ffffff"
   id="path89" />
</g>
</svg>